<svg xmlns="http://www.w3.org/2000/svg" viewBox="0 0 640 520" width="640" height="520" role="img">
  <rect width="640" height="520" rx="48" fill="#fff9f2"/>
  <circle cx="120" cy="100" r="56" fill="#ffe6a8"/>
  <path d="M40 400 Q180 300 320 396 T600 370 L600 480 L40 480 Z" fill="#a8dd9a"/>
  <path d="M120 470 Q260 380 400 460" stroke="#fff9f2" stroke-width="14" fill="none" stroke-linecap="round" stroke-dasharray="2 28"/>
  <g>
    <circle cx="200" cy="300" r="46" fill="#ffd66b" stroke="#241e3a" stroke-width="6"/>
    <circle cx="186" cy="292" r="5" fill="#241e3a"/><circle cx="214" cy="292" r="5" fill="#241e3a"/>
    <path d="M180 314 Q200 334 220 314" stroke="#241e3a" stroke-width="6" fill="none" stroke-linecap="round"/>
    <rect x="170" y="350" width="60" height="90" rx="26" fill="#c9401b"/>
  </g>
  <g>
    <circle cx="320" cy="270" r="46" fill="#f6c9a8" stroke="#241e3a" stroke-width="6"/>
    <circle cx="306" cy="262" r="5" fill="#241e3a"/><circle cx="334" cy="262" r="5" fill="#241e3a"/>
    <path d="M300 284 Q320 304 340 284" stroke="#241e3a" stroke-width="6" fill="none" stroke-linecap="round"/>
    <rect x="290" y="320" width="60" height="96" rx="26" fill="#5b32ab"/>
  </g>
  <g>
    <circle cx="440" cy="300" r="46" fill="#e9b98c" stroke="#241e3a" stroke-width="6"/>
    <circle cx="426" cy="292" r="5" fill="#241e3a"/><circle cx="454" cy="292" r="5" fill="#241e3a"/>
    <path d="M420 314 Q440 334 460 314" stroke="#241e3a" stroke-width="6" fill="none" stroke-linecap="round"/>
    <rect x="410" y="350" width="60" height="90" rx="26" fill="#2f8f5b"/>
  </g>
  <g transform="translate(470 90) rotate(8)">
    <rect width="130" height="100" rx="14" fill="#ffffff" stroke="#241e3a" stroke-width="6"/>
    <path d="M18 70 Q52 30 84 62 T116 44" stroke="#2e7fbf" stroke-width="8" fill="none" stroke-linecap="round"/>
    <circle cx="40" cy="34" r="10" fill="#e4572e"/>
  </g>
  <text x="320" y="500" text-anchor="middle" font-family="Nunito, Baloo 2, Verdana, sans-serif" font-size="20" fill="#514a6b">Placeholder illustration — swap me out</text>
</svg>
